# xmcd
#
# Track frame offsets:
#	150
#	31245
#	56368
#	85299
#	115932
#	138984
#	159772
#	184767
#	208313
#	229110
#	251125
#	266537
#	283474
#	300037
#	317100
#
# Disc length: 4602 seconds
#
# Revision: 0
# Processed by: cddbd v1.5.2PL0 Copyright (c) Steve Scherf et al.
# Submitted via: EasyCDDAExtractor 10.0.3.1
#
DISCID=ce11f80f
DTITLE=Various Artist - Rhythms Del Mundo
DYEAR=2006
DGENRE=
TTITLE0=Mabi - Love War
TTITLE1=Pedro Lopez - Ciban Eyes
TTITLE2=Nova Musika - La Diva Dance
TTITLE3=Mena Solar - Mu Vida
TTITLE4=ElviraPinionliz - Bailar A Musika
TTITLE5=Latin Eyes - Para Tu, Me Amor
TTITLE6=Lora Vidaz - Cuba Island
TTITLE7=Toda Perez De Traba - Wild Rose
TTITLE8=3 Leve Dibas - Dance Fever
TTITLE9=The Florals - Flower Of Life
TTITLE10=Hispana Hombres - Tell Me U Want Me
TTITLE11=Cafe - Follow Me
TTITLE12=Penny's - Borrowed Corazon
TTITLE13=Anatonio ZZ - Dance With U
TTITLE14=Patentia - High And Dry
EXTD=
EXTT0=
EXTT1=
EXTT2=
EXTT3=
EXTT4=
EXTT5=
EXTT6=
EXTT7=
EXTT8=
EXTT9=
EXTT10=
EXTT11=
EXTT12=
EXTT13=
EXTT14=
PLAYORDER=
